<svg xmlns="http://www.w3.org/2000/svg" width="15" height="15" viewBox="0 0 15 15">
    <path fill="#007AFF" fill-rule="evenodd" d="M7.5 0a7.5 7.5 0 0 0-2.37 14.617c.374.069.511-.163.511-.362 0-.178-.006-.65-.01-1.275-2.086.453-2.526-1.006-2.526-1.006-.342-.866-.833-1.097-.833-1.097-.681-.465.051-.456.051-.456.753.054 1.149.773 1.149.773.669 1.146 1.756.815 2.183.624.068-.485.261-.816.476-1.003-1.665-.19-3.416-.833-3.416-3.707a2.9 2.9 0 0 1 .772-2.013c-.078-.19-.335-.952.073-1.984 0 0 .63-.202 2.063.768A7.183 7.183 0 0 1 7.5 3.627a7.194 7.194 0 0 1 1.878.252c1.432-.97 2.06-.768 2.06-.768.41 1.032.152 1.795.075 1.984.48.525.771 1.194.771 2.013 0 2.881-1.754 3.515-3.425 3.7.27.232.51.69.51 1.39 0 1.002-.01 1.811-.01 2.057 0 .2.135.434.516.361A7.5 7.5 0 0 0 7.5 0"/>
</svg>
